<svg width="41" height="40" viewBox="0 0 41 40" fill="none" xmlns="http://www.w3.org/2000/svg">
<path d="M8.83334 25H7.16668C6.28262 25 5.43478 24.6489 4.80965 24.0237C4.18453 23.3986 3.83334 22.5508 3.83334 21.6667V6.66671C3.83334 5.78265 4.18453 4.93481 4.80965 4.30968C5.43478 3.68456 6.28262 3.33337 7.16668 3.33337H22.1667C23.0507 3.33337 23.8986 3.68456 24.5237 4.30968C25.1488 4.93481 25.5 5.78265 25.5 6.66671V8.33337M18.8333 15H33.8333C35.6743 15 37.1667 16.4924 37.1667 18.3334V33.3334C37.1667 35.1743 35.6743 36.6667 33.8333 36.6667H18.8333C16.9924 36.6667 15.5 35.1743 15.5 33.3334V18.3334C15.5 16.4924 16.9924 15 18.8333 15Z" stroke="#153448" stroke-width="3.5" stroke-linecap="round" stroke-linejoin="round"/>
</svg>
