<svg width="40" height="41" viewBox="0 0 40 41" fill="none" xmlns="http://www.w3.org/2000/svg">
<g clip-path="url(#clip0_424156_101)">
<path d="M15 32.1667C6.66668 34.6667 6.66668 28 3.33334 27.1667M26.6667 37.1667V30.7167C26.7292 29.9219 26.6218 29.123 26.3517 28.373C26.0816 27.623 25.6549 26.939 25.1 26.3667C30.3333 25.7833 35.8333 23.8 35.8333 14.7C35.8329 12.373 34.9378 10.1353 33.3333 8.45C34.0931 6.41418 34.0394 4.16391 33.1833 2.16666C33.1833 2.16666 31.2167 1.58333 26.6667 4.63333C22.8467 3.59803 18.82 3.59803 15 4.63333C10.45 1.58333 8.48334 2.16666 8.48334 2.16666C7.6273 4.16391 7.57358 6.41418 8.33334 8.45C6.71689 10.1478 5.82088 12.4058 5.83334 14.75C5.83334 23.7833 11.3333 25.7667 16.5667 26.4167C16.0183 26.9833 15.5954 27.659 15.3255 28.3999C15.0556 29.1407 14.9447 29.9301 15 30.7167V37.1667" stroke="#948979" stroke-width="3.5" stroke-linecap="round" stroke-linejoin="round"/>
</g>
<defs>
<clipPath id="clip0_424156_101">
<rect width="40" height="40" fill="white" transform="translate(0 0.5)"/>
</clipPath>
</defs>
</svg>
