<svg width="40" height="40" viewBox="0 0 40 40" fill="none" xmlns="http://www.w3.org/2000/svg">
<path d="M26.6666 6.66667H30C30.884 6.66667 31.7319 7.01786 32.357 7.64298C32.9821 8.2681 33.3333 9.11595 33.3333 10V33.3333C33.3333 34.2174 32.9821 35.0652 32.357 35.6904C31.7319 36.3155 30.884 36.6667 30 36.6667H9.99996C9.1159 36.6667 8.26806 36.3155 7.64294 35.6904C7.01782 35.0652 6.66663 34.2174 6.66663 33.3333V10C6.66663 9.11595 7.01782 8.2681 7.64294 7.64298C8.26806 7.01786 9.1159 6.66667 9.99996 6.66667H13.3333M15 3.33334H25C25.9204 3.33334 26.6666 4.07953 26.6666 5V8.33334C26.6666 9.25381 25.9204 10 25 10H15C14.0795 10 13.3333 9.25381 13.3333 8.33334V5C13.3333 4.07953 14.0795 3.33334 15 3.33334Z" stroke="#948979" stroke-width="3.5" stroke-linecap="round" stroke-linejoin="round"/>
</svg>
