<svg width="40" height="41" viewBox="0 0 40 41" fill="none" xmlns="http://www.w3.org/2000/svg">
<path d="M26.6667 13.8333C29.3188 13.8333 31.8624 14.8869 33.7377 16.7623C35.6131 18.6376 36.6667 21.1812 36.6667 23.8333V35.5H30V23.8333C30 22.9493 29.6488 22.1014 29.0237 21.4763C28.3986 20.8512 27.5507 20.5 26.6667 20.5C25.7826 20.5 24.9348 20.8512 24.3097 21.4763C23.6845 22.1014 23.3333 22.9493 23.3333 23.8333V35.5H16.6667V23.8333C16.6667 21.1812 17.7202 18.6376 19.5956 16.7623C21.471 14.8869 24.0145 13.8333 26.6667 13.8333Z" stroke="#948979" stroke-width="3.5" stroke-linecap="round" stroke-linejoin="round"/>
<path d="M10 15.5H3.33334V35.5H10V15.5Z" stroke="#948979" stroke-width="3.5" stroke-linecap="round" stroke-linejoin="round"/>
<path d="M6.66668 10.5C8.50763 10.5 10 9.00763 10 7.16668C10 5.32573 8.50763 3.83334 6.66668 3.83334C4.82573 3.83334 3.33334 5.32573 3.33334 7.16668C3.33334 9.00763 4.82573 10.5 6.66668 10.5Z" stroke="#948979" stroke-width="3.5" stroke-linecap="round" stroke-linejoin="round"/>
</svg>
