<svg width="40" height="40" viewBox="0 0 40 40" fill="none" xmlns="http://www.w3.org/2000/svg">
<path d="M11.6667 18.3333V11.6667C11.6667 9.45654 12.5446 7.33692 14.1074 5.77412C15.6702 4.21132 17.7899 3.33334 20 3.33334C22.2101 3.33334 24.3298 4.21132 25.8926 5.77412C27.4554 7.33692 28.3333 9.45654 28.3333 11.6667V18.3333M8.33333 18.3333H31.6667C33.5076 18.3333 35 19.8257 35 21.6667V33.3333C35 35.1743 33.5076 36.6667 31.6667 36.6667H8.33333C6.49238 36.6667 5 35.1743 5 33.3333V21.6667C5 19.8257 6.49238 18.3333 8.33333 18.3333Z" stroke="#DFD0B8" stroke-width="3.5" stroke-linecap="round" stroke-linejoin="round"/>
</svg>
