<svg width="32" height="32" viewBox="0 0 32 32" fill="none" xmlns="http://www.w3.org/2000/svg">
<g clip-path="url(#clip0_2_231)">
<path d="M32 16C32 20.2435 30.3143 24.3131 27.3137 27.3137C24.3131 30.3143 20.2435 32 16 32C11.7565 32 7.68687 30.3143 4.68629 27.3137C1.68571 24.3131 0 20.2435 0 16C0 11.7565 1.68571 7.68687 4.68629 4.68629C7.68687 1.68571 11.7565 0 16 0C20.2435 0 24.3131 1.68571 27.3137 4.68629C30.3143 7.68687 32 11.7565 32 16V16ZM16 8C15.7472 8.00014 15.4973 8.05324 15.2662 8.15586C15.0352 8.25848 14.8283 8.40835 14.6587 8.59582C14.4891 8.7833 14.3607 9.00421 14.2817 9.24433C14.2027 9.48446 14.1749 9.73847 14.2 9.99L14.9 17.004C14.9235 17.2795 15.0496 17.5362 15.2533 17.7233C15.457 17.9103 15.7235 18.0141 16 18.0141C16.2765 18.0141 16.543 17.9103 16.7467 17.7233C16.9504 17.5362 17.0765 17.2795 17.1 17.004L17.8 9.99C17.8251 9.73847 17.7973 9.48446 17.7183 9.24433C17.6393 9.00421 17.5109 8.7833 17.3413 8.59582C17.1717 8.40835 16.9648 8.25848 16.7338 8.15586C16.5027 8.05324 16.2528 8.00014 16 8V8ZM16.004 20C15.4736 20 14.9649 20.2107 14.5898 20.5858C14.2147 20.9609 14.004 21.4696 14.004 22C14.004 22.5304 14.2147 23.0391 14.5898 23.4142C14.9649 23.7893 15.4736 24 16.004 24C16.5344 24 17.0431 23.7893 17.4182 23.4142C17.7933 23.0391 18.004 22.5304 18.004 22C18.004 21.4696 17.7933 20.9609 17.4182 20.5858C17.0431 20.2107 16.5344 20 16.004 20Z" fill="#DFD0B8"/>
</g>
<defs>
<clipPath id="clip0_2_231">
<rect width="32" height="32" fill="white"/>
</clipPath>
</defs>
</svg>
