<svg width="40" height="61" viewBox="0 0 40 61" fill="none" xmlns="http://www.w3.org/2000/svg">
<path fill-rule="evenodd" clip-rule="evenodd" d="M29.8163 30.0661C29.762 30.4139 29.6297 30.7449 29.4294 31.0343C29.229 31.3237 28.9658 31.564 28.6594 31.7373C28.0423 32.1358 27.5024 32.335 26.9561 32.5343C25.7928 32.936 24.5683 33.3377 23.2732 33.8037C21.9074 34.2697 20.6829 34.7357 19.5903 35.0731C18.2277 35.5391 16.9325 35.9408 15.7017 36.4068C14.7757 36.8031 13.9058 37.3196 13.1147 37.943C12.3788 38.6096 11.7367 39.3728 11.2057 40.2118C10.6594 41.1438 10.3155 42.3457 10.3155 43.7469C10.3155 46.5525 10.9968 48.6864 12.3626 50.0201C13.7253 51.4245 16.2512 52.0897 19.9952 52.0897C23.8131 52.0897 26.4034 51.357 27.7724 49.8883C29.1318 48.4197 29.8131 46.3532 29.8131 43.6859V30.0661H29.8163ZM19.9984 0.5C26.6829 0.5 31.5903 1.76942 34.7237 4.37252C37.8602 6.91135 39.4285 10.1765 39.4285 14.0458V47.0185C39.4285 48.3522 39.1586 49.8208 38.683 51.4213C38.2009 53.0281 37.2496 54.4936 35.7488 55.8241C34.3187 57.1642 32.3423 58.2986 29.8195 59.1663C27.2968 60.034 24.0252 60.5 20.0016 60.5C15.9845 60.5 12.7065 60.034 10.187 59.1663C7.66741 58.2986 5.68776 57.1642 4.25766 55.8241C2.92728 54.6252 1.91946 53.1112 1.32676 51.4213C0.844699 49.824 0.571533 48.3554 0.571533 47.0217V41.7512C0.571533 38.9456 1.32033 36.3425 2.82113 34.0704C4.32194 31.7373 6.43335 30.1368 9.16179 29.1342C10.5244 28.6682 12.0927 28.2022 13.8635 27.6012C15.6374 26.9971 17.27 26.3961 18.909 25.8658C20.548 25.3291 21.9781 24.7924 23.2025 24.3232C23.9414 24.0276 24.6919 23.7617 25.4521 23.5262L26.6797 22.9253C27.1618 22.6585 27.6342 22.2568 28.113 21.7234C28.5887 21.1931 28.9968 20.5921 29.3407 19.9237C29.704 19.1998 29.8912 18.4004 29.887 17.5905V15.4534C29.8921 14.6701 29.7276 13.8951 29.405 13.1813C29.135 12.3779 28.5887 11.6452 27.8399 10.9799C27.0911 10.3115 26.0659 9.77799 24.8415 9.37306C23.6139 8.97777 21.9813 8.77531 20.1366 8.77531C16.3187 8.77531 13.796 9.51446 12.4333 11.0442C11.2764 12.3811 10.5951 14.049 10.4601 15.9162C10.4601 16.3179 10.1195 16.5846 9.70812 16.5846L1.39424 16.7196C1.19675 16.7205 1.00692 16.6433 0.866074 16.5048C0.725228 16.3664 0.644776 16.1779 0.642235 15.9804V14.0522C0.642235 12.1786 0.986102 10.4432 1.7349 8.77531C2.48691 7.10418 3.64706 5.70621 5.21213 4.50107C6.78043 3.30236 8.82756 2.30289 11.2796 1.63444C13.6674 0.831012 16.5983 0.5 20.0049 0.5H19.9984Z" fill="#DFD0B8"/>
</svg>
